<svg width="200" height="44" viewBox="0 0 200 44" fill="none" xmlns="http://www.w3.org/2000/svg"><rect x="1" y="1" width="42" height="42" rx="12" fill="#131318" stroke="#2A2A33"/><path d="M11 14.5C11 12.567 12.567 11 14.5 11H28.8C31.1196 11 33 12.8804 33 15.2V17.4C33 19.7196 31.1196 21.6 28.8 21.6H17.4V33H14.5C12.567 33 11 31.433 11 29.5V14.5Z" fill="#8B5CF6"/><path d="M20.1 24.1H28.65C31.052 24.1 33 26.048 33 28.45V29.1C33 31.254 31.254 33 29.1 33H20.1V24.1Z" fill="#A78BFA"/><path d="M17.4 16.2H27.2" stroke="#F6F3FF" stroke-width="2.2" stroke-linecap="round"/><text x="55" y="28" fill="#F5F5F7" font-family="Inter,Arial,sans-serif" font-size="20" font-weight="650">RailDock</text></svg>